<?xml version="1.0" encoding="UTF-8" standalone="no"?>
<!-- Created with Inkscape (http://www.inkscape.org/) -->

<svg
   width="2.5in"
   height="2.5in"
   viewBox="0 0 63.499999 63.499999"
   version="1.1"
   id="svg1"
   xml:space="preserve"
   inkscape:version="1.3.2 (091e20ef0f, 2023-11-25)"
   sodipodi:docname="sg.svg"
   inkscape:export-filename="sg.png"
   inkscape:export-xdpi="96"
   inkscape:export-ydpi="96"
   xmlns:inkscape="http://www.inkscape.org/namespaces/inkscape"
   xmlns:sodipodi="http://sodipodi.sourceforge.net/DTD/sodipodi-0.dtd"
   xmlns="http://www.w3.org/2000/svg"
   xmlns:svg="http://www.w3.org/2000/svg"><sodipodi:namedview
     id="namedview1"
     pagecolor="#ffffff"
     bordercolor="#000000"
     borderopacity="0.25"
     inkscape:showpageshadow="2"
     inkscape:pageopacity="0.0"
     inkscape:pagecheckerboard="0"
     inkscape:deskcolor="#d1d1d1"
     inkscape:document-units="mm"
     inkscape:zoom="0.70119516"
     inkscape:cx="58.471596"
     inkscape:cy="307.33241"
     inkscape:window-width="1920"
     inkscape:window-height="1011"
     inkscape:window-x="0"
     inkscape:window-y="0"
     inkscape:window-maximized="1"
     inkscape:current-layer="layer2" /><defs
     id="defs1" /><g
     inkscape:groupmode="layer"
     id="layer2"
     inkscape:label="Border"
     style="display:inline"
     transform="translate(-0.51617801,-0.51617801)"><circle
       style="display:inline;fill:none;fill-opacity:1;stroke:#ffec3d;stroke-width:1.57506;stroke-dasharray:none;stroke-opacity:1"
       id="path51"
       cx="32.266178"
       cy="32.266178"
       r="30.962471" /></g><g
     inkscape:label="Guy"
     inkscape:groupmode="layer"
     id="layer1"
     style="display:inline"
     transform="translate(-33.491458,-61.776714)"><path
       id="path43"
       style="display:inline;fill:#ffec3f;fill-opacity:1;stroke:none;stroke-width:0.0986199"
       inkscape:label="path43"
       d="m 60.59299,109.65179 c -1.763437,-0.002 -4.103869,0.25823 -4.045925,1.66248 0.09271,2.2468 3.084725,2.59503 3.110191,2.59763 0.02546,0.003 -2.138492,0.31751 -1.461002,1.84239 0.67749,1.52488 1.589355,2.20969 2.744988,2.11937 1.155631,-0.0903 3.037379,-1.84234 2.041166,-2.39847 -0.996207,-0.55613 -0.498301,-1.09811 -0.498301,-1.09811 0,0 10.273552,2.55092 11.909715,1.22697 1.636161,-1.32395 1.336662,-1.91411 1.140097,-3.87681 -0.19656,-1.96272 -13.032476,-1.97818 -13.032476,-1.97818 0,0 -0.85039,-0.0959 -1.908453,-0.0973 z m 9.132175,2.08065 c 0.289082,-0.002 0.670672,0.11056 1.174775,0.47345 1.344259,0.96772 2.726635,-0.57313 2.562386,0.84405 -0.164255,1.41719 -12.28012,-1.30652 -12.28012,-1.30652 0,0 7.56052,0.37726 7.730306,0.34055 0.10612,-0.023 0.330844,-0.34756 0.812653,-0.35153 z" /><path
       style="display:inline;fill:#ffec3f;fill-opacity:1;stroke:none;stroke-width:0.0986199"
       d="m 68.259889,115.76288 c 0,0 -0.672201,-0.99879 -1.534646,0.0856 -1.220876,1.53511 -2.503296,0.78849 0.247938,3.11241 2.995741,2.53045 4.795299,-1.72728 3.902935,-2.12691 -0.25495,-0.11417 0.338499,-1.4732 -2.363693,-1.00289 -0.115348,0.0201 -0.252534,-0.0682 -0.252534,-0.0682 z"
       id="path44"
       sodipodi:nodetypes="cssssc" /><path
       id="path45"
       style="display:inline;fill:#ffec3f;fill-opacity:1;stroke:none;stroke-width:0.0986199"
       d="m 65.447716,68.47659 c -0.322318,0.0015 -0.690975,0.04343 -1.106201,0.143307 -2.503296,0.602149 -4.552618,2.170586 -4.604324,3.27507 -0.23717,5.066251 0.810002,4.431694 1.958531,5.539285 1.148534,1.107594 2.920274,1.072106 2.920274,1.072106 -0.0013,1.919603 0.519194,4.598086 0.238651,4.607216 -1.987765,0.271334 -3.617201,5.116083 -5.213379,7.36221 -0.974795,3.207081 -2.478701,2.106762 -3.381202,2.32027 -0.902501,0.213508 -0.352297,1.05554 -0.352297,1.05554 l -1.718338,-0.146771 c 0,0 0.814039,0.12128 0.229214,-0.79975 -0.584825,-0.921023 0.06642,-1.475205 -0.299712,-1.320774 -0.366131,0.154432 -0.563983,-0.871017 -0.563983,-0.871017 0,0 -2.563039,-0.644529 -1.372013,0.715965 1.191027,1.360482 0.540307,0.227257 0.42241,1.478141 -0.117899,1.25088 0.886098,0.03883 0.603663,0.944595 -0.282438,0.905735 0.311461,1.391849 0.311461,1.391849 l 3.348072,0.01077 c 0,0 0.150092,0.836349 0.413742,0.857336 0.26365,0.02096 0.441094,-0.746007 0.441094,-0.746007 0,0 0.04349,0.667718 0.425299,0.661642 0.381806,-0.006 0.357883,-0.874097 0.357883,-0.874097 0,0 0.50578,0.731171 1.111593,0.680904 0.605813,-0.05027 0.553197,-0.900492 0.553197,-0.900492 0,0 0.582211,0.100319 1.010661,-0.374252 0.428446,-0.474571 -0.185873,-1.325784 -0.185873,-1.325784 0,0 1.6546,-2.013724 1.710441,-2.879434 0.05584,-0.865706 2.326429,-4.148972 2.326429,-4.148972 0,0 1.372192,9.893436 0.205909,11.419883 -1.166276,1.52646 0.203278,0.81516 -0.674739,2.795841 -0.878007,1.98068 0.343682,0.75872 -0.873902,3.46402 -1.217586,2.7053 -0.545802,2.44592 -0.961165,3.6214 -0.415358,1.17548 -0.08065,2.64617 1.010091,2.53735 1.090745,-0.10883 1.074607,-1.43828 1.074607,-1.43828 0,0 -0.391689,-2.01941 0.40315,-3.30203 0.79484,-1.28263 1.262028,-4.52092 1.262028,-4.52092 0,0 1.77507,3.42289 1.458302,5.60439 -0.08309,0.5722 0.154126,0.95586 0.563436,1.77929 0.06705,0.13488 -0.466093,0.44203 -0.585354,0.76174 -0.116201,0.31151 0.18118,0.63574 0.259144,0.76537 0.140268,0.23324 1.125414,-0.176 1.182687,-0.0964 0.23189,0.32219 2.346822,1.04868 1.583181,-1.05475 -1.152417,-3.17429 -1.27788,-2.2135 -2.013041,-6.63993 -1.298129,-7.816091 -1.759324,-0.87202 -1.46601,-4.886496 0.293323,-4.014483 -0.254059,-10.054043 -0.254059,-10.054043 0,0 3.560229,7.340614 3.79552,7.034958 0.01377,-0.01792 1.136628,0.530669 1.231597,0.399299 0.09497,-0.131374 -0.141572,-0.424726 -0.141572,-0.424726 0,0 1.24186,0.473869 0.313579,-1.771112 -0.928287,-2.244981 -2.8572,-5.113223 -3.389484,-6.287022 -1.199929,-2.646097 -1.135904,-1.727314 -1.693879,-2.353594 0,0 -0.908179,-4.926874 -0.862922,-4.933124 2.089808,-0.288496 4.119534,-3.340647 4.085987,-3.717894 -0.486839,-5.476647 -3.863284,-5.531127 -3.482904,-5.617283 0.30906,-0.07 -0.218787,-0.821254 -1.61548,-0.81477 z m -0.446486,2.085851 c 0.587435,-0.01421 1.227731,0.234749 1.985305,0.876023 2.203839,1.865528 1.381255,3.316098 1.381255,3.316098 l -2.368033,1.674614 -2.336446,-0.02331 -1.851247,-1.308064 c 0,0 -0.612552,-1.977373 -0.04758,-2.475709 1.186206,-1.04629 2.115277,-2.032543 3.236742,-2.059655 z"
       sodipodi:nodetypes="cssscccsccsscsssccscscscscscssssscscssssssssccscsscccsccssccccss" /><path
       style="fill:#ffec3f;fill-opacity:1;stroke:none;stroke-width:0.0986199"
       d="m 52.478915,89.106184 c -1.029718,0.02746 -1.479983,0.704523 -1.117877,-1.074106 0.362106,-1.778628 0.656566,-1.017091 1.220168,-1.901709 0.563603,-0.884614 -0.933667,0.391951 0.03088,-1.700209 0.964541,-2.09216 2.218014,2.706965 0.134469,3.161394 -0.129597,0.02827 0.24365,-0.120477 0.532251,0.745964 0.06133,0.184139 -0.799884,0.768666 -0.799884,0.768666 z"
       id="path46"
       sodipodi:nodetypes="sssssscs" /><path
       style="fill:#ffec3f;fill-opacity:1;stroke:none;stroke-width:0.0986199"
       d="m 50.605098,85.72467 c 0,0 0.305594,-0.650394 0.841914,-0.998919 0.53632,-0.348524 -0.199936,-0.540619 0.534694,-0.999586 0.734632,-0.458966 -0.968615,0.878788 -0.994615,0.842776 -0.01955,-0.02712 0.598682,-1.825482 0.632224,-2.231342 0.01615,-0.195437 -1.262801,-0.662951 -0.452368,-3.106044 0.11828,-0.356561 0.387156,-0.489659 0.387156,-0.489659 0,0 -1.628753,-1.111748 0.156623,-3.287531 1.785375,-2.175782 1.634586,0.760544 1.634586,0.760544 0,0 -1.148981,0.411138 -1.319239,0.995573 -0.141895,0.487075 0.899381,0.584319 1.0168,1.679524 0.117417,1.095211 -1.005804,1.178874 -1.005804,1.178874 0,0 0.18775,1.2538 0.654982,1.660497 0.811023,0.705947 -0.263809,1.864738 -0.263809,1.864738 l -0.03748,0.616162 c 0,0 -1.696833,2.016676 -1.785661,1.514393 z"
       id="path47"
       sodipodi:nodetypes="cssssscscsscsccc" /><path
       style="fill:#ffec3f;fill-opacity:1;stroke:none;stroke-width:0.0986199"
       d="m 63.674846,73.611146 c 0,0 -1.023591,-1.853549 0.817345,-1.544741 1.840937,0.30881 -0.765925,2.204912 -0.817345,1.544741 z"
       id="path48" /><path
       style="fill:#ffec3f;fill-opacity:1;stroke:none;stroke-width:0.0986199"
       d="m 66.61796,73.977407 c 0,0 -1.954729,-0.748559 0.122249,-1.620418 1.381591,-0.579954 0.859619,2.386482 -0.122249,1.620418 z"
       id="path49"
       sodipodi:nodetypes="csc" /><path
       style="display:inline;fill:#ffec3f;fill-opacity:1;stroke:none;stroke-width:0.0809629"
       d="m 74.898504,79.908002 c 0,0 0.396867,-1.139441 -1.350282,-5.369566 -1.747157,-4.230125 3.418598,-3.06269 3.147493,-0.866268 -0.271107,2.196421 1.738743,-2.779174 2.953612,-0.294686 1.214874,2.484488 -2.776686,4.142422 -3.485065,5.127697 -0.708376,0.985271 -1.265758,1.402823 -1.265758,1.402823 z"
       id="path50" /></g></svg>
