<?xml version="1.0" encoding="UTF-8" standalone="no"?>
<!-- Created with Inkscape (http://www.inkscape.org/) -->

<svg
   width="174.14999"
   height="15.39"
   viewBox="0 0 46.077185 4.0719378"
   version="1.1"
   id="svg5"
   inkscape:version="1.1.2 (0a00cf5339, 2022-02-04)"
   sodipodi:docname="email.svg"
   xmlns:inkscape="http://www.inkscape.org/namespaces/inkscape"
   xmlns:sodipodi="http://sodipodi.sourceforge.net/DTD/sodipodi-0.dtd"
   xmlns="http://www.w3.org/2000/svg"
   xmlns:svg="http://www.w3.org/2000/svg">
  <sodipodi:namedview
     id="namedview7"
     pagecolor="#ffffff"
     bordercolor="#666666"
     borderopacity="1.0"
     inkscape:pageshadow="2"
     inkscape:pageopacity="0.0"
     inkscape:pagecheckerboard="0"
     inkscape:document-units="mm"
     showgrid="false"
     fit-margin-top="0"
     fit-margin-left="0"
     fit-margin-right="0"
     fit-margin-bottom="0"
     inkscape:zoom="1.6831431"
     inkscape:cx="105.75453"
     inkscape:cy="88.227794"
     inkscape:window-width="1488"
     inkscape:window-height="970"
     inkscape:window-x="26"
     inkscape:window-y="23"
     inkscape:window-maximized="0"
     inkscape:current-layer="text1683"
     units="px"
     scale-x="1"
     width="429.56894px" />
  <defs
     id="defs2" />
  <g
     inkscape:label="Layer 1"
     inkscape:groupmode="layer"
     id="layer1"
     transform="translate(-39.866327,-84.231123)">
    <rect
       style="fill:#ffffff;stroke-width:0.107019"
       id="rect11031"
       width="46.009682"
       height="4.2035379"
       x="39.876114"
       y="84.181465" />
  </g>
  <g
     inkscape:groupmode="layer"
     id="layer2"
     inkscape:label="Layer 2">
    <g
       aria-label="alessandra@adrs.pub"
       transform="translate(-39.866327,-84.231123)"
       id="text1683"
       style="font-size:10.5833px;line-height:1.25;stroke-width:0.264583">
      <path
         d="m 41.066741,86.261903 c -1.594352,-0.206809 -0.291092,1.855374 0.333912,0.424835 0.195203,-0.480067 -6.88e-4,-0.437862 -0.333912,-0.424835 z m 0.767107,-0.158857 c -0.138851,0.42962 0.340136,1.477079 -0.369766,1.335648 0.177547,-0.663588 -1.684864,0.817824 -1.607576,-0.681411 -0.165748,-1.152263 2.82975,-0.513591 0.928055,-1.389993 -2.120929,0.381932 1.089331,-1.175359 1.033611,0.485191 l 0.01568,0.250564 z"
         id="path16282"
         style="stroke-width:0.107019" />
      <path
         d="m 42.626041,84.18632 c 0.728272,-0.168678 0.247043,0.872144 0.384599,1.294183 0,0.65273 0,1.30546 0,1.958191 -0.728273,0.168678 -0.247045,-0.872145 -0.384599,-1.294184 0,-0.65273 0,-1.30546 0,-1.95819 z"
         id="path16284"
         style="stroke-width:0.107019" />
      <path
         d="m 45.817798,86.172024 c -0.117895,0.437833 -1.04708,0.06437 -1.479067,0.188118 -0.996711,0.384169 1.082274,1.142698 1.389188,0.688153 -0.640509,1.373184 -3.085018,-0.439458 -1.770413,-1.668463 0.6636,-0.719954 1.974375,-0.24345 1.860292,0.792192 z m -0.384599,-0.112872 c -0.396284,-1.67302 -2.239524,0.468885 -0.354324,5.25e-4 0.118108,-1.79e-4 0.236215,-3.59e-4 0.354324,-5.25e-4 z"
         id="path16286"
         style="stroke-width:0.107019" />
      <path
         d="m 47.941456,85.16663 c 0.30319,0.667343 -1.9838,-0.141828 -1.018456,0.832428 2.082617,0.0482 0.555721,2.352921 -0.645355,1.261495 -0.205616,-0.519852 2.141599,0.285375 1.119834,-0.760889 -1.937732,-0.147018 -0.966713,-2.0456 0.543977,-1.333034 z"
         id="path16288"
         style="stroke-width:0.107019" />
      <path
         d="m 50.171716,85.16663 c 0.30319,0.667343 -1.983801,-0.141828 -1.018457,0.832428 2.082617,0.0482 0.555721,2.352921 -0.645354,1.261495 -0.205617,-0.519852 2.1416,0.285375 1.119833,-0.760889 -1.937732,-0.147018 -0.966711,-2.0456 0.543978,-1.333034 z"
         id="path16290"
         style="stroke-width:0.107019" />
      <path
         d="m 51.973481,86.261903 c -1.594353,-0.206809 -0.291093,1.855374 0.333911,0.424835 0.195205,-0.480067 -6.87e-4,-0.437862 -0.333911,-0.424835 z m 0.767109,-0.158857 c -0.138853,0.42962 0.340136,1.477079 -0.369767,1.335648 0.177547,-0.663588 -1.684865,0.817824 -1.607577,-0.681411 -0.165748,-1.152263 2.829751,-0.513591 0.928056,-1.389993 -2.12093,0.381932 1.08933,-1.175359 1.033612,0.485191 l 0.01568,0.250564 z"
         id="path16292"
         style="stroke-width:0.107019" />
      <path
         d="m 55.478772,86.025708 c -0.142914,0.420524 0.312538,1.439411 -0.277325,1.412986 -0.274286,-0.340663 0.0061,-1.172678 -0.139672,-1.690984 -0.920816,-1.12599 -1.345465,0.683903 -1.156935,1.477178 -0.320879,0.719492 -0.507888,-0.3902 -0.38669,-0.803052 0.139479,-0.425173 -0.341382,-1.470683 0.369767,-1.324183 -0.251004,0.84045 1.528607,-1.147135 1.590855,0.928055 z"
         id="path16294"
         style="stroke-width:0.107019" />
      <path
         d="m 57.786368,85.452989 c 0.126168,-0.424255 -0.325263,-1.426109 0.3846,-1.266669 0,1.084124 0,2.168249 0,3.252374 -0.659798,-0.142263 -0.27245,-0.318208 -1.134988,0.06062 -1.689118,-0.06499 -0.9208,-3.3786 0.612957,-2.228168 z m -1.310564,0.817274 c 0.171043,2.210901 2.459538,-0.474822 0.654236,-0.907152 -0.481113,-0.01842 -0.671306,0.511646 -0.654236,0.907152 z"
         id="path16296"
         style="stroke-width:0.107019" />
      <path
         d="m 60.319708,85.457171 c -1.213663,-0.366992 -0.970351,1.200057 -0.984491,1.950036 -0.671278,0.277601 -0.288723,-0.769995 -0.38669,-1.170255 0.01879,-0.388257 -0.164813,-1.500385 0.38669,-1.046859 -0.299935,0.677391 1.202737,-0.91148 0.984491,0.267078 z"
         id="path16298"
         style="stroke-width:0.107019" />
      <path
         d="m 61.78704,86.261903 c -1.594352,-0.206809 -0.291093,1.855374 0.333911,0.424835 0.195204,-0.480067 -6.87e-4,-0.437862 -0.333911,-0.424835 z m 0.767109,-0.158857 c -0.138852,0.42962 0.340136,1.477079 -0.369768,1.335648 0.177548,-0.663588 -1.684864,0.817824 -1.607576,-0.681411 -0.165748,-1.152263 2.829751,-0.513591 0.928055,-1.389993 -2.120929,0.381932 1.089331,-1.175359 1.033613,0.485191 l 0.01568,0.250564 z"
         id="path16300"
         style="stroke-width:0.107019" />
      <path
         d="m 64.535674,86.316248 c 0.344008,1.819722 2.04664,-0.841049 0.324504,-0.594666 -0.231457,0.09408 -0.333553,0.362001 -0.324504,0.594666 z m 1.139164,0.624974 c -1.602448,1.473682 -2.064767,-2.444663 -0.133253,-1.388425 0.337812,-0.35712 0.547431,0.159093 0.432154,0.881517 0.0176,1.431871 1.335018,-1.066834 0.143178,-1.385781 -1.480245,-1.256308 -3.59308,1.073403 -2.128882,2.390161 0.365779,1.091652 3.323197,-0.4145 1.74951,0.635424 -1.874465,0.792427 -3.49416,-2.014014 -1.824757,-3.226768 1.105777,-1.007487 3.282495,-0.116039 2.991228,1.478435 0.132573,0.502493 -1.389665,1.465249 -1.229178,0.615437 z"
         id="path16302"
         style="stroke-width:0.107019" />
      <path
         d="m 68.69102,86.261903 c -1.594354,-0.206809 -0.291091,1.855375 0.333912,0.424835 0.195208,-0.480069 -8.09e-4,-0.437862 -0.333912,-0.424835 z m 0.767109,-0.158857 c -0.138851,0.42962 0.340138,1.477079 -0.369766,1.335648 0.177548,-0.663588 -1.684868,0.817824 -1.607579,-0.681411 -0.165749,-1.152264 2.829755,-0.513589 0.928056,-1.389993 -2.120928,0.381932 1.089328,-1.175358 1.033611,0.485191 l 0.0157,0.250564 z"
         id="path16304"
         style="stroke-width:0.107019" />
      <path
         d="m 71.790807,85.452989 c 0.126167,-0.424257 -0.325264,-1.426111 0.384603,-1.266669 0,1.084124 0,2.168249 0,3.252374 -0.659799,-0.142261 -0.272447,-0.31821 -1.134986,0.06062 -1.689123,-0.06499 -0.920804,-3.3786 0.612953,-2.228168 z m -1.310563,0.817274 c 0.171044,2.2109 2.459536,-0.474818 0.654238,-0.907152 -0.481115,-0.01842 -0.671307,0.511645 -0.654238,0.907152 z"
         id="path16306"
         style="stroke-width:0.107019" />
      <path
         d="m 74.324147,85.457171 c -1.213662,-0.366993 -0.97035,1.200057 -0.984491,1.950036 -0.671279,0.277601 -0.288723,-0.769996 -0.386689,-1.170255 0.01881,-0.388256 -0.164814,-1.500385 0.386689,-1.046859 -0.299936,0.67739 1.202746,-0.911481 0.984491,0.267078 z"
         id="path16308"
         style="stroke-width:0.107019" />
      <path
         d="m 76.219972,85.16663 c 0.303188,0.667342 -1.983801,-0.141825 -1.018455,0.832428 2.082617,0.04819 0.555719,2.352922 -0.645355,1.261495 -0.205618,-0.519852 2.141602,0.285374 1.119834,-0.760889 -1.937734,-0.147017 -0.966713,-2.045601 0.543976,-1.333034 z"
         id="path16310"
         style="stroke-width:0.107019" />
      <path
         d="m 77.012164,86.907779 c 0.961795,-0.269225 0.107891,1.17386 0,0.253589 0,-0.08453 0,-0.169059 0,-0.253589 z"
         id="path16312"
         style="stroke-width:0.107019" />
      <path
         d="m 78.690609,87.087538 c -0.126122,0.416637 0.326697,1.412216 -0.38669,1.241587 0,-1.077157 0,-2.154315 0,-3.231472 0.661329,-0.05743 0.1883,0.590551 0.895654,-0.03083 1.734879,-0.362736 1.486384,3.090941 -0.203794,2.332157 l -0.168261,-0.129071 z m 1.308473,-0.817275 c -0.174903,-2.210007 -2.454527,0.477013 -0.65424,0.907154 0.480749,0.01899 0.670698,-0.512237 0.65424,-0.907154 z"
         id="path16314"
         style="stroke-width:0.107019" />
      <path
         d="m 80.99611,86.514819 c 0.142318,-0.422514 -0.311605,-1.441267 0.277327,-1.417166 0.274331,0.341431 -0.0062,1.174569 0.139675,1.693596 0.917528,1.128982 1.349568,-0.681278 1.159024,-1.475609 0.316751,-0.727126 0.506623,0.385311 0.384598,0.798871 -0.139477,0.425172 0.341383,1.470682 -0.369765,1.324183 0.255681,-0.830602 -1.530065,1.148222 -1.590859,-0.923875 z"
         id="path16316"
         style="stroke-width:0.107019" />
      <path
         d="m 85.429458,86.270263 c -0.174906,-2.210009 -2.454531,0.47702 -0.654235,0.907154 0.480748,0.01899 0.670693,-0.512239 0.654235,-0.907154 z m -1.308473,-0.817274 c 1.285316,-1.544538 2.594974,1.593463 0.95144,2.025158 -0.928741,-0.110126 -0.706073,-0.334275 -1.338129,-0.03946 0,-1.084124 0,-2.168248 0,-3.252373 0.734932,-0.227689 0.245618,0.88461 0.386689,1.26667 z"
         id="path16318"
         style="stroke-width:0.107019" />
    </g>
  </g>
</svg>
